<svg width="44" height="25" viewBox="0 0 44 25" fill="none" xmlns="http://www.w3.org/2000/svg">
<g id="Component 2">
<path id="Vector" d="M40.1897 5.35131C40.4825 5.5774 40.6736 5.90934 40.7214 6.27486C40.7692 6.64038 40.6698 7.00992 40.4449 7.30295C40.22 7.59591 39.8877 7.78871 39.5205 7.83923C39.1534 7.88977 38.781 7.79398 38.4845 7.57276C38.02 7.22018 37.4901 6.96202 36.9254 6.81301C36.3605 6.66401 35.7717 6.62719 35.1926 6.70442C34.6134 6.78172 34.0552 6.97175 33.5499 7.2635C33.0445 7.55534 32.6019 7.94333 32.2473 8.40523C31.8928 8.86713 31.6331 9.39389 31.4833 9.9556C31.3335 10.5172 31.2964 11.1027 31.3741 11.6787C31.4519 12.2546 31.6429 12.8097 31.9364 13.3122C32.2298 13.8147 32.6199 14.2548 33.0844 14.6074C33.3807 14.8323 33.5749 15.165 33.6245 15.5323C33.6741 15.8996 33.5749 16.2714 33.3488 16.566C33.1226 16.8606 32.7881 17.0538 32.4187 17.1031C32.0493 17.1524 31.6754 17.0537 31.3791 16.8289C30.6174 16.255 29.9771 15.5372 29.495 14.7168C29.0127 13.8962 28.6982 12.9891 28.5694 12.0475C28.4406 11.1059 28.4999 10.1482 28.7441 9.22941C28.9883 8.31068 29.4124 7.44888 29.9923 6.69349C30.5721 5.9381 31.2964 5.30396 32.1232 4.82749C32.95 4.35102 33.8634 4.04159 34.8108 3.91692C35.7582 3.79212 36.721 3.85464 37.6441 4.10084C38.5672 4.34698 39.4322 4.77196 40.1897 5.35131Z" fill="#6BFC8C"/>
<path id="E" d="M2.49136 21.7113C1.11542 21.7113 0 20.5958 0 19.2199V10.7727C0 9.41802 1.09819 8.31982 2.45289 8.31982H8.48756C9.21878 8.31982 9.81154 8.91259 9.81154 9.6438V9.6438C9.81154 10.3644 9.23531 10.9526 8.5149 10.9675L4.60594 11.0482C3.89605 11.0629 3.32823 11.6426 3.32823 12.3526V12.3526C3.32823 13.0732 3.91234 13.6573 4.63288 13.6573H8.31779C8.9887 13.6573 9.53258 14.2012 9.53258 14.8721V14.8721V14.8721C9.53258 15.6592 8.89448 16.2973 8.10735 16.2973H4.67122C3.9295 16.2973 3.32823 16.8986 3.32823 17.6403V17.6403C3.32823 18.3714 3.91312 18.9683 4.64413 18.983L8.66848 19.0642C9.38897 19.0787 9.96545 19.667 9.96545 20.3876V20.3876C9.96545 21.1186 9.37282 21.7113 8.64178 21.7113H2.49136Z" fill="white"/>
<path id="Vector_2" d="M31.3081 22.281C29.3826 22.281 27.5359 21.5204 26.1743 20.1664C24.8128 18.8125 24.0479 16.9762 24.0479 15.0614C24.0479 13.1466 24.8128 11.3103 26.1743 9.95637C27.5359 8.60243 29.3826 7.8418 31.3081 7.8418C31.6808 7.8418 32.0382 7.98902 32.3017 8.25107C32.5653 8.51312 32.7133 8.86855 32.7133 9.23915C32.7133 9.60974 32.5653 9.96516 32.3017 10.2272C32.0382 10.4893 31.6808 10.6365 31.3081 10.6365C30.7237 10.6365 30.1451 10.7509 29.6052 10.9733C29.0653 11.1957 28.5748 11.5216 28.1616 11.9325C27.7484 12.3434 27.4206 12.8312 27.197 13.3681C26.9734 13.9049 26.8583 14.4803 26.8583 15.0614C26.8583 15.6425 26.9734 16.2179 27.197 16.7547C27.4206 17.2916 27.7484 17.7794 28.1616 18.1903C28.5748 18.6011 29.0653 18.9271 29.6052 19.1495C30.1451 19.3718 30.7237 19.4863 31.3081 19.4863C31.6808 19.4863 32.0382 19.6335 32.3017 19.8956C32.5653 20.1576 32.7133 20.5131 32.7133 20.8836C32.7133 21.2543 32.5653 21.6097 32.3017 21.8717C32.0382 22.1338 31.6808 22.281 31.3081 22.281Z" fill="white"/>
<path id="Vector_3" d="M20.5278 22.2164C19.9834 22.2164 19.1664 22.2164 18.2745 22.2164C15.5131 22.2164 13.2744 19.9778 13.2744 17.2164C13.2744 16.3368 13.2744 15.5322 13.2744 14.9946C13.2744 13.8044 13.2744 11.59 13.2744 10.0838C13.2744 9.21499 13.9787 8.51123 14.8475 8.51123V8.51123C15.7163 8.51123 16.4206 9.21552 16.4206 10.0843L16.4206 13.3007C16.4206 13.3007 16.4206 13.3007 16.4206 13.3007C16.4206 13.3007 16.4206 15.3791 16.4206 17.1323C16.4206 18.3962 17.4452 19.4209 18.7092 19.4209V19.4209C18.7092 19.4209 18.7092 19.4209 18.7092 19.4209C18.7092 19.4209 19.944 19.4209 20.5278 19.4209C20.9001 19.4209 21.2572 19.5681 21.5205 19.8303C21.7837 20.0924 21.9317 20.4479 21.9317 20.8186C21.9317 21.1894 21.7837 21.5449 21.5205 21.807C21.2572 22.0692 20.9001 22.2164 20.5278 22.2164Z" fill="white"/>
<path id="Vector_4" d="M27.7672 21.3441C27.4473 21.1578 27.2145 20.8534 27.1193 20.4971C27.0241 20.1409 27.0743 19.7616 27.259 19.442C27.4437 19.1225 27.7479 18.8883 28.1054 18.7908C28.4628 18.6932 28.8446 18.74 29.1675 18.921C29.6741 19.2105 30.2333 19.398 30.8127 19.4727C31.3923 19.5474 31.9809 19.5077 32.545 19.3563C33.1092 19.2047 33.6378 18.9441 34.1006 18.5895C34.5636 18.2348 34.9516 17.7929 35.2428 17.289C35.5339 16.7852 35.7225 16.2294 35.7976 15.6531C35.8726 15.0768 35.8329 14.4915 35.6805 13.9304C35.5281 13.3695 35.2661 12.8439 34.9094 12.3835C34.5528 11.9233 34.1084 11.5373 33.6018 11.2478C33.2786 11.0631 33.0425 10.7584 32.9453 10.4006C32.8481 10.0429 32.8978 9.66134 33.0835 9.34001C33.2692 9.01869 33.5757 8.78388 33.9354 8.68724C34.2952 8.59059 34.6789 8.64003 35.002 8.82468C35.8324 9.29518 36.5611 9.92403 37.1464 10.6752C37.7319 11.4264 38.1624 12.2851 38.4132 13.2021C38.6641 14.1191 38.7305 15.0763 38.6085 16.0189C38.4865 16.9614 38.1787 17.8707 37.7026 18.6947C37.2264 19.5186 36.5913 20.241 35.8338 20.8204C35.0763 21.3997 34.2111 21.8246 33.2881 22.0707C32.365 22.317 31.4022 22.3795 30.4547 22.2548C29.5073 22.1301 28.5941 21.8206 27.7672 21.3441Z" fill="white"/>
<path id="Vector_5" d="M36.8015 3.96476C38.7107 4.21376 40.4422 5.20673 41.6151 6.72527C42.7881 8.24371 43.3063 10.1634 43.0559 12.0619C42.8055 13.9604 41.807 15.6822 40.2799 16.8486C38.7529 18.015 36.8224 18.5304 34.9132 18.2814C34.5437 18.2332 34.2086 18.041 33.9815 17.7471C33.7545 17.4532 33.6542 17.0816 33.7027 16.7142C33.7511 16.3467 33.9444 16.0135 34.24 15.7877C34.5355 15.562 34.9092 15.4622 35.2787 15.5104C35.8581 15.586 36.4468 15.5473 37.0111 15.3966C37.5755 15.246 38.1045 14.9862 38.568 14.6323C39.0314 14.2783 39.4202 13.837 39.7121 13.3336C40.004 12.8303 40.1934 12.2746 40.2694 11.6985C40.3454 11.1223 40.3065 10.5369 40.155 9.97572C40.0035 9.41451 39.7423 8.88848 39.3863 8.42761C39.0303 7.96683 38.5866 7.58018 38.0804 7.28986C37.5741 6.99964 37.0154 6.81129 36.436 6.73573C36.0665 6.68753 35.7313 6.49535 35.5043 6.20141C35.2773 5.90757 35.177 5.53599 35.2254 5.16858C35.2739 4.80107 35.4672 4.46779 35.7627 4.24209C36.0583 4.01631 36.4319 3.91657 36.8015 3.96476Z" fill="#6BFC8C"/>
</g>
</svg>
