<svg width="106" height="58" viewBox="0 0 106 58" fill="none" xmlns="http://www.w3.org/2000/svg">
<g id="Property 1=AZUL">
<path id="Vector" d="M96.8206 10.6252C97.5259 11.1716 97.9863 11.9738 98.1014 12.8572C98.2166 13.7405 97.9771 14.6336 97.4352 15.3417C96.8934 16.0497 96.093 16.5156 95.2084 16.6377C94.3239 16.7598 93.4268 16.5284 92.7124 15.9938C91.5934 15.1417 90.317 14.5178 88.9565 14.1577C87.5956 13.7976 86.1772 13.7086 84.7819 13.8953C83.3866 14.0821 82.0419 14.5413 80.8245 15.2464C79.607 15.9516 78.5408 16.8893 77.6866 18.0056C76.8324 19.1218 76.207 20.3948 75.846 21.7523C75.4852 23.1096 75.3956 24.5245 75.5829 25.9165C75.7703 27.3083 76.2304 28.6496 76.9374 29.8641C77.6443 31.0784 78.5842 32.1421 79.7032 32.9941C80.4169 33.5376 80.8849 34.3416 81.0043 35.2292C81.1238 36.1169 80.8848 37.0155 80.34 37.7274C79.7953 38.4393 78.9893 38.9062 78.0995 39.0253C77.2096 39.1445 76.3087 38.9061 75.5951 38.3627C73.7599 36.9758 72.2174 35.2412 71.0559 33.2584C69.8941 31.2754 69.1364 29.0833 68.8262 26.8078C68.5158 24.5322 68.6586 22.2177 69.247 19.9973C69.8353 17.7771 70.857 15.6944 72.254 13.8688C73.6509 12.0433 75.3956 10.5108 77.3875 9.35935C79.3794 8.20787 81.5799 7.46007 83.8622 7.1588C86.1445 6.85721 88.4641 7.00828 90.688 7.60327C92.9117 8.19812 94.9956 9.22514 96.8206 10.6252Z" fill="#6BFC8C"/>
<path id="E" d="M6.00191 50.1621C2.68714 50.1621 0 47.4749 0 44.1602V23.7087C0 20.4451 2.64565 17.7994 5.90922 17.7994H20.4372C22.2043 17.7994 23.6369 19.232 23.6369 20.9992C23.6369 22.7405 22.2444 24.1621 20.5035 24.1982L11.1057 24.3929C9.39016 24.4285 8.01801 25.8293 8.01801 27.5453C8.01801 29.2866 9.42966 30.6983 11.171 30.6983H20.0291C21.6505 30.6983 22.9649 32.0126 22.9649 33.634C22.9649 35.5363 21.4228 37.0783 19.5205 37.0783H11.2637C9.47114 37.0783 8.01801 38.5315 8.01801 40.324C8.01801 42.0909 9.43142 43.5332 11.198 43.569L20.8734 43.7648C22.6146 43.8001 24.0077 45.2216 24.0077 46.9631C24.0077 48.7299 22.5754 50.1621 20.8087 50.1621H6.00191Z" fill="#005CE5"/>
<path id="Vector_2" d="M75.4242 51.5385C70.7854 51.5385 66.3366 49.7003 63.0565 46.4282C59.7763 43.1563 57.9336 38.7184 57.9336 34.0911C57.9336 29.4637 59.7763 25.0259 63.0565 21.7539C66.3366 18.4819 70.7854 16.6437 75.4242 16.6437C76.322 16.6437 77.1831 16.9995 77.8179 17.6328C78.4528 18.2661 78.8095 19.125 78.8095 20.0206C78.8095 20.9162 78.4528 21.7751 77.8179 22.4085C77.1831 23.0417 76.322 23.3975 75.4242 23.3975C74.0164 23.3975 72.6224 23.6741 71.3218 24.2115C70.0212 24.7489 68.8395 25.5366 67.844 26.5296C66.8486 27.5226 66.0589 28.7014 65.5202 29.9988C64.9814 31.2962 64.7042 32.6868 64.7042 34.0911C64.7042 35.4954 64.9814 36.8859 65.5202 38.1833C66.0589 39.4807 66.8486 40.6595 67.844 41.6526C68.8395 42.6454 70.0212 43.4332 71.3218 43.9707C72.6224 44.5079 74.0164 44.7846 75.4242 44.7846C76.322 44.7846 77.1831 45.1404 77.8179 45.7738C78.4528 46.4069 78.8095 47.2659 78.8095 48.1614C78.8095 49.0572 78.4528 49.9162 77.8179 50.5493C77.1831 51.1827 76.322 51.5385 75.4242 51.5385Z" fill="#005CE5"/>
<path id="Vector_3" d="M49.4533 51.3826C46.7133 51.3826 41.1054 51.3826 36.9784 51.3826C34.2169 51.3826 31.9792 49.145 31.9792 46.3836C31.9792 42.2622 31.9792 36.6652 31.9792 33.9299C31.9792 31.0506 31.9792 25.6906 31.9792 22.0504C31.9792 19.9574 33.676 18.2618 35.7689 18.2618C37.8619 18.2618 39.5586 19.9585 39.5586 22.0515L39.5586 29.8364C39.5586 29.8364 39.5586 42.7293 39.5586 44.6267H45.0722C45.0722 44.6267 48.0468 44.6267 49.4533 44.6267C50.3502 44.6267 51.2105 44.9826 51.8447 45.6162C52.479 46.2495 52.8353 47.1088 52.8353 48.0046C52.8353 48.9006 52.479 49.7599 51.8447 50.3932C51.2105 51.0268 50.3502 51.3826 49.4533 51.3826Z" fill="#005CE5"/>
<path id="Vector_4" d="M66.8939 49.275C66.1233 48.8248 65.5623 48.0891 65.333 47.2282C65.1036 46.3673 65.2247 45.4508 65.6697 44.6783C66.1145 43.9061 66.8474 43.3403 67.7086 43.1045C68.5697 42.8687 69.4894 42.9818 70.2673 43.4192C71.4879 44.1189 72.8349 44.5719 74.2308 44.7525C75.627 44.933 77.045 44.8372 78.404 44.4712C79.7632 44.1049 81.0366 43.4752 82.1517 42.6181C83.2669 41.7609 84.2019 40.6929 84.9033 39.4753C85.6047 38.2578 86.0589 36.9145 86.2398 35.5217C86.4207 34.1291 86.325 32.7145 85.9578 31.3587C85.5906 30.003 84.9596 28.7328 84.1002 27.6204C83.2411 26.508 82.1705 25.5753 80.9499 24.8756C80.1714 24.4294 79.6025 23.6929 79.3684 22.8283C79.1343 21.9637 79.2541 21.0417 79.7014 20.2652C80.1488 19.4886 80.887 18.9212 81.7538 18.6876C82.6206 18.4541 83.5448 18.5736 84.3233 19.0198C86.3236 20.1568 88.0792 21.6766 89.4893 23.4919C90.8997 25.3073 91.9368 27.3825 92.541 29.5985C93.1455 31.8145 93.3055 34.1279 93.0116 36.4057C92.7178 38.6834 91.9762 40.881 90.8291 42.8722C89.682 44.8634 88.1519 46.6093 86.327 48.0093C84.5021 49.4094 82.4178 50.4363 80.1941 51.0311C77.9705 51.6262 75.651 51.7773 73.3684 51.4758C71.086 51.1745 68.8859 50.4265 66.8939 49.275Z" fill="#005CE5"/>
<path id="Vector_5" d="M88.6578 7.2745C93.2572 7.87624 97.4286 10.2759 100.254 13.9457C103.08 17.6153 104.329 22.2546 103.725 26.8426C103.122 31.4307 100.717 35.5917 97.0377 38.4105C93.3589 41.2292 88.7083 42.4747 84.1088 41.873C83.2186 41.7565 82.4113 41.2921 81.8644 40.5818C81.3174 39.8715 81.0758 38.9736 81.1925 38.0856C81.3093 37.1976 81.7749 36.3922 82.4869 35.8466C83.199 35.3011 84.0991 35.06 84.9893 35.1765C86.3851 35.3591 87.8033 35.2657 89.1629 34.9016C90.5226 34.5374 91.797 33.9097 92.9134 33.0543C94.0299 32.1989 94.9665 31.1325 95.6698 29.916C96.3731 28.6995 96.8292 27.3567 97.0123 25.9643C97.1954 24.572 97.1017 23.1573 96.7367 21.801C96.3717 20.4447 95.7424 19.1735 94.8849 18.0597C94.0273 16.9462 92.9583 16.0118 91.7388 15.3102C90.5192 14.6088 89.1732 14.1536 87.7774 13.971C86.8871 13.8545 86.0798 13.3901 85.5329 12.6797C84.9859 11.9696 84.7443 11.0716 84.861 10.1837C84.9778 9.29558 85.4434 8.49014 86.1554 7.94472C86.8675 7.39907 87.7676 7.15803 88.6578 7.2745Z" fill="#6BFC8C"/>
</g>
</svg>
