<svg width="22" height="23" viewBox="0 0 22 23" fill="none" xmlns="http://www.w3.org/2000/svg">
<path d="M6.70455 0.75C3.14561 0.75 0.25 3.64561 0.25 7.20455V15.7955C0.25 19.3544 3.14561 22.25 6.70455 22.25H15.2955C18.8544 22.25 21.75 19.3544 21.75 15.7955V7.20455C21.75 3.64561 18.8544 0.75 15.2955 0.75H6.70455ZM6.70455 2.20455H15.2955C18.0623 2.20455 20.2955 4.4377 20.2955 7.20455V15.7955C20.2955 18.5623 18.0623 20.7955 15.2955 20.7955H6.70455C3.9377 20.7955 1.70455 18.5623 1.70455 15.7955V7.20455C1.70455 4.4377 3.9377 2.20455 6.70455 2.20455ZM16.7273 4.56818C16.4078 4.56818 16.1014 4.69509 15.8755 4.92098C15.6496 5.14688 15.5227 5.45326 15.5227 5.77273C15.5227 6.09219 15.6496 6.39857 15.8755 6.62447C16.1014 6.85037 16.4078 6.97727 16.7273 6.97727C17.0467 6.97727 17.3531 6.85037 17.579 6.62447C17.8049 6.39857 17.9318 6.09219 17.9318 5.77273C17.9318 5.45326 17.8049 5.14688 17.579 4.92098C17.3531 4.69509 17.0467 4.56818 16.7273 4.56818ZM11 6C7.96809 6 5.5 8.46809 5.5 11.5C5.5 14.5319 7.96809 17 11 17C14.0319 17 16.5 14.5319 16.5 11.5C16.5 8.46809 14.0319 6 11 6ZM11 7.45455C13.2399 7.45455 15.0455 9.2601 15.0455 11.5C15.0455 13.7399 13.2399 15.5455 11 15.5455C8.7601 15.5455 6.95455 13.7399 6.95455 11.5C6.95455 9.2601 8.7601 7.45455 11 7.45455Z" fill="white" stroke="white" stroke-width="0.5"/>
</svg>
