<svg width="45" height="24" viewBox="0 0 45 24" fill="none" xmlns="http://www.w3.org/2000/svg">
<path d="M40.6897 4.39672C40.9825 4.62281 41.1736 4.95475 41.2214 5.32027C41.2692 5.68579 41.1698 6.05533 40.9449 6.34836C40.72 6.64132 40.3877 6.83412 40.0205 6.88464C39.6534 6.93518 39.281 6.83939 38.9845 6.61817C38.52 6.26559 37.9901 6.00743 37.4254 5.85842C36.8605 5.70942 36.2717 5.6726 35.6926 5.74983C35.1134 5.82713 34.5552 6.01716 34.0499 6.30891C33.5445 6.60075 33.1019 6.98874 32.7473 7.45064C32.3928 7.91254 32.1331 8.4393 31.9833 9.00101C31.8335 9.56265 31.7964 10.1482 31.8741 10.7241C31.9519 11.3001 32.1429 11.8551 32.4364 12.3576C32.7298 12.8601 33.1199 13.3002 33.5844 13.6528C33.8807 13.8777 34.0749 14.2104 34.1245 14.5777C34.1741 14.945 34.0749 15.3168 33.8488 15.6114C33.6226 15.906 33.2881 16.0992 32.9187 16.1485C32.5493 16.1978 32.1754 16.0991 31.8791 15.8743C31.1174 15.3004 30.4771 14.5827 29.995 13.7622C29.5127 12.9416 29.1982 12.0345 29.0694 11.093C28.9406 10.1513 28.9999 9.19359 29.2441 8.27482C29.4883 7.35609 29.9124 6.49429 30.4923 5.7389C31.0721 4.98351 31.7964 4.34938 32.6232 3.8729C33.45 3.39643 34.3634 3.087 35.3108 2.96233C36.2582 2.83753 37.221 2.90005 38.1441 3.14625C39.0672 3.39239 39.9322 3.81737 40.6897 4.39672Z" fill="#6BFC8C"/>
<path d="M2.99136 20.7567C1.61542 20.7567 0.5 19.6413 0.5 18.2653V9.81812C0.5 8.46343 1.59819 7.36523 2.95289 7.36523H8.98756C9.71878 7.36523 10.3115 7.958 10.3115 8.68921V8.68921C10.3115 9.40977 9.73531 9.99803 9.0149 10.0129L5.10594 10.0937C4.39605 10.1083 3.82823 10.688 3.82823 11.398V11.398C3.82823 12.1186 4.41234 12.7027 5.13288 12.7027H8.81779C9.4887 12.7027 10.0326 13.2466 10.0326 13.9175V13.9175V13.9175C10.0326 14.7046 9.39448 15.3427 8.60735 15.3427H5.17122C4.4295 15.3427 3.82823 15.944 3.82823 16.6857V16.6857C3.82823 17.4169 4.41312 18.0137 5.14413 18.0284L9.16848 18.1096C9.88897 18.1241 10.4654 18.7124 10.4654 19.433V19.433C10.4654 20.164 9.87282 20.7567 9.14178 20.7567H2.99136Z" fill="white"/>
<path d="M31.8081 21.3262C29.8826 21.3262 28.0359 20.5655 26.6743 19.2116C25.3128 17.8577 24.5479 16.0213 24.5479 14.1066C24.5479 12.1918 25.3128 10.3555 26.6743 9.00154C28.0359 7.6476 29.8826 6.88696 31.8081 6.88696C32.1808 6.88696 32.5382 7.03418 32.8017 7.29624C33.0653 7.55829 33.2133 7.91371 33.2133 8.28431C33.2133 8.65491 33.0653 9.01033 32.8017 9.27239C32.5382 9.53444 32.1808 9.68166 31.8081 9.68166C31.2237 9.68166 30.6451 9.79611 30.1052 10.0185C29.5653 10.2409 29.0748 10.5668 28.6616 10.9777C28.2484 11.3886 27.9206 11.8764 27.697 12.4132C27.4734 12.9501 27.3583 13.5255 27.3583 14.1066C27.3583 14.6877 27.4734 15.2631 27.697 15.7999C27.9206 16.3368 28.2484 16.8246 28.6616 17.2355C29.0748 17.6463 29.5653 17.9723 30.1052 18.1947C30.6451 18.417 31.2237 18.5315 31.8081 18.5315C32.1808 18.5315 32.5382 18.6787 32.8017 18.9408C33.0653 19.2028 33.2133 19.5582 33.2133 19.9288C33.2133 20.2994 33.0653 20.6549 32.8017 20.9169C32.5382 21.179 32.1808 21.3262 31.8081 21.3262Z" fill="white"/>
<path d="M21.0278 21.2618C20.4834 21.2618 19.6664 21.2618 18.7745 21.2618C16.0131 21.2618 13.7744 19.0232 13.7744 16.2618C13.7744 15.3822 13.7744 14.5776 13.7744 14.04C13.7744 12.8498 13.7744 10.6354 13.7744 9.12919C13.7744 8.2604 14.4787 7.55664 15.3475 7.55664V7.55664C16.2163 7.55664 16.9206 8.26093 16.9206 9.12972L16.9206 12.3462C16.9206 12.3462 16.9206 12.3462 16.9206 12.3462C16.9206 12.3462 16.9206 14.4245 16.9206 16.1777C16.9206 17.4417 17.9452 18.4663 19.2092 18.4663V18.4663C19.2092 18.4663 19.2092 18.4663 19.2092 18.4663C19.2092 18.4663 20.444 18.4663 21.0278 18.4663C21.4001 18.4663 21.7572 18.6135 22.0205 18.8757C22.2837 19.1378 22.4317 19.4933 22.4317 19.864C22.4317 20.2348 22.2837 20.5903 22.0205 20.8524C21.7572 21.1146 21.4001 21.2618 21.0278 21.2618Z" fill="white"/>
<path d="M28.2672 20.3897C27.9473 20.2034 27.7145 19.899 27.6193 19.5428C27.5241 19.1866 27.5743 18.8073 27.759 18.4877C27.9437 18.1681 28.2479 17.934 28.6054 17.8364C28.9628 17.7388 29.3446 17.7856 29.6675 17.9666C30.1741 18.2562 30.7333 18.4436 31.3127 18.5183C31.8923 18.593 32.4809 18.5534 33.045 18.4019C33.6092 18.2504 34.1378 17.9898 34.6006 17.6352C35.0636 17.2805 35.4516 16.8385 35.7428 16.3347C36.0339 15.8309 36.2225 15.275 36.2976 14.6987C36.3726 14.1225 36.3329 13.5371 36.1805 12.9761C36.0281 12.4151 35.7661 11.8895 35.4094 11.4292C35.0528 10.9689 34.6084 10.583 34.1018 10.2934C33.7786 10.1088 33.5425 9.80405 33.4453 9.44628C33.3481 9.08851 33.3978 8.70699 33.5835 8.38566C33.7692 8.06434 34.0757 7.82953 34.4354 7.73289C34.7952 7.63624 35.1789 7.68569 35.502 7.87034C36.3324 8.34083 37.0611 8.96969 37.6464 9.72086C38.2319 10.4721 38.6624 11.3308 38.9132 12.2477C39.1641 13.1647 39.2305 14.122 39.1085 15.0645C38.9865 16.007 38.6787 16.9164 38.2026 17.7403C37.7264 18.5643 37.0913 19.2867 36.3338 19.866C35.5763 20.4454 34.7111 20.8703 33.7881 21.1164C32.865 21.3626 31.9022 21.4252 30.9547 21.3004C30.0073 21.1757 29.0941 20.8662 28.2672 20.3897Z" fill="white"/>
<path d="M37.3015 3.01017C39.2107 3.25917 40.9422 4.25214 42.1151 5.77068C43.2881 7.28912 43.8063 9.20882 43.5559 11.1073C43.3055 13.0058 42.307 14.7276 40.7799 15.894C39.2529 17.0604 37.3224 17.5758 35.4132 17.3268C35.0437 17.2786 34.7086 17.0864 34.4815 16.7925C34.2545 16.4986 34.1542 16.127 34.2027 15.7596C34.2511 15.3921 34.4444 15.0589 34.74 14.8331C35.0355 14.6074 35.4092 14.5076 35.7787 14.5558C36.3581 14.6314 36.9468 14.5927 37.5111 14.4421C38.0755 14.2914 38.6045 14.0316 39.068 13.6777C39.5314 13.3237 39.9202 12.8824 40.2121 12.3791C40.504 11.8757 40.6934 11.3201 40.7694 10.7439C40.8454 10.1677 40.8065 9.58235 40.655 9.02113C40.5035 8.45992 40.2423 7.93389 39.8863 7.47302C39.5303 7.01224 39.0866 6.62559 38.5804 6.33527C38.0741 6.04505 37.5154 5.8567 36.936 5.78114C36.5665 5.73294 36.2313 5.54076 36.0043 5.24682C35.7773 4.95298 35.677 4.5814 35.7254 4.21399C35.7739 3.84648 35.9672 3.5132 36.2627 3.2875C36.5583 3.06172 36.9319 2.96198 37.3015 3.01017Z" fill="#6BFC8C"/>
</svg>
