<svg width="24" height="23" viewBox="0 0 24 23" fill="none" xmlns="http://www.w3.org/2000/svg">
<mask id="path-1-outside-1_744_17034" maskUnits="userSpaceOnUse" x="0.419922" y="-0.0800781" width="23" height="23" fill="black">
<rect fill="white" x="0.419922" y="-0.0800781" width="23" height="23"/>
<path d="M11.9999 0.919922C6.16231 0.919922 1.41992 5.66231 1.41992 11.4999C1.41992 13.3763 1.93452 15.1274 2.79273 16.6561L1.43699 21.4959C1.41533 21.5734 1.41435 21.6552 1.43415 21.7331C1.45395 21.811 1.49384 21.8824 1.54983 21.9402C1.60583 21.9979 1.67598 22.0399 1.75329 22.0621C1.83059 22.0842 1.91236 22.0857 1.99043 22.0664L7.03695 20.8158C8.51985 21.6075 10.2025 22.0799 11.9999 22.0799C17.8375 22.0799 22.5799 17.3375 22.5799 11.4999C22.5799 5.66231 17.8375 0.919922 11.9999 0.919922ZM11.9999 1.83992C17.3403 1.83992 21.6599 6.15954 21.6599 11.4999C21.6599 16.8403 17.3403 21.1599 11.9999 21.1599C10.2878 21.1599 8.6843 20.7136 7.29031 19.9336C7.18836 19.8766 7.06855 19.8605 6.9552 19.8886L2.53578 20.9838L3.72082 16.7558C3.73778 16.696 3.74246 16.6335 3.73458 16.5719C3.72671 16.5102 3.70644 16.4509 3.675 16.3973C2.82784 14.9608 2.33992 13.2894 2.33992 11.4999C2.33992 6.15954 6.65954 1.83992 11.9999 1.83992ZM8.15551 5.97992C7.86063 5.97992 7.4395 6.08963 7.09355 6.46238C6.88577 6.68627 6.01992 7.5299 6.01992 9.01305C6.01992 10.5593 7.09236 11.8936 7.22203 12.065H7.22293V12.0659C7.21063 12.0498 7.38752 12.3059 7.62363 12.6131C7.85975 12.9202 8.18993 13.3237 8.60473 13.7604C9.43432 14.6339 10.6007 15.6433 12.0484 16.2607C12.7151 16.5446 13.2411 16.7161 13.6396 16.8411C14.3781 17.073 15.0507 17.0378 15.5559 16.9633C15.9341 16.9076 16.3501 16.726 16.7616 16.4656C17.1732 16.2051 17.5765 15.8813 17.7544 15.3893C17.8818 15.0365 17.9466 14.7105 17.97 14.4423C17.9818 14.3082 17.9832 14.1898 17.9745 14.0802C17.9658 13.9706 17.9751 13.8867 17.873 13.7191C17.6588 13.3674 17.4163 13.3583 17.1632 13.233C17.0226 13.1634 16.6223 12.9679 16.2208 12.7766C15.8197 12.5855 15.4724 12.4162 15.2586 12.34C15.1234 12.2913 14.9584 12.2214 14.7204 12.2483C14.4823 12.2753 14.2472 12.447 14.1104 12.6499C13.9806 12.8422 13.4583 13.4588 13.2991 13.64C13.2969 13.6387 13.3108 13.6451 13.2479 13.6139C13.0509 13.5165 12.8101 13.4336 12.4536 13.2456C12.0972 13.0576 11.6514 12.7799 11.1635 12.3498V12.3489C10.4373 11.7097 9.92867 10.907 9.7682 10.6374C9.77901 10.6246 9.76692 10.6401 9.78977 10.6177L9.79066 10.6168C9.95466 10.4552 10.1 10.2623 10.2228 10.1208C10.3969 9.92022 10.4738 9.74338 10.557 9.57816C10.7229 9.24888 10.6306 8.88654 10.5346 8.6959V8.695C10.5412 8.70819 10.4826 8.57899 10.4196 8.42996C10.3563 8.2805 10.2757 8.08674 10.1896 7.88012C10.0173 7.46687 9.82505 7.00338 9.7107 6.73191V6.73102C9.57599 6.41126 9.39374 6.1809 9.15547 6.06977C8.91719 5.95863 8.70668 5.99023 8.69816 5.9898H8.69727C8.52723 5.98196 8.34064 5.97992 8.15551 5.97992ZM8.15551 6.89992C8.33286 6.89992 8.5077 6.90208 8.65414 6.90891C8.80479 6.91641 8.79542 6.91703 8.76645 6.90352C8.73701 6.88979 8.77695 6.88533 8.86258 7.08859C8.97455 7.35441 9.16778 7.81958 9.34055 8.2341C9.42693 8.44136 9.50778 8.63588 9.57234 8.78844C9.63691 8.941 9.6719 9.02618 9.7125 9.10738V9.10828L9.7134 9.10918C9.75321 9.18772 9.74969 9.13744 9.73586 9.16488C9.63879 9.35754 9.62561 9.40485 9.52742 9.51797C9.37791 9.69021 9.22541 9.88229 9.14469 9.9618C9.07406 10.0312 8.94664 10.1393 8.86707 10.3508C8.78738 10.5627 8.82458 10.8534 8.95242 11.0705C9.12264 11.3594 9.68355 12.2724 10.5552 13.0398C11.1042 13.5238 11.6156 13.8441 12.0242 14.0596C12.4327 14.2751 12.7655 14.401 12.84 14.4378C13.0168 14.5253 13.21 14.5933 13.4347 14.5663C13.6594 14.5393 13.8532 14.403 13.9765 14.2635L13.9774 14.2626C14.1415 14.0765 14.6292 13.5197 14.8632 13.1764C14.8732 13.1799 14.8699 13.1772 14.9477 13.2052V13.2061H14.9486C14.9841 13.2187 15.4289 13.4178 15.8255 13.6068C16.222 13.7957 16.6246 13.9921 16.7554 14.0569C16.9441 14.1503 17.0333 14.2111 17.0563 14.2114C17.0579 14.2519 17.0595 14.2957 17.0536 14.3623C17.0375 14.5471 16.9881 14.8028 16.8892 15.0766C16.8408 15.2106 16.5884 15.487 16.2702 15.6884C15.952 15.8898 15.5646 16.0321 15.4212 16.0532C14.9899 16.1168 14.4778 16.14 13.9154 15.9634C13.5254 15.841 13.0392 15.6825 12.4096 15.4144C11.1327 14.8699 10.0475 13.9432 9.27227 13.127C8.88465 12.7189 8.5741 12.339 8.35316 12.0516C8.13264 11.7647 8.03635 11.6154 7.95605 11.5098L7.95516 11.5089C7.81263 11.3204 6.93992 10.1065 6.93992 9.01305C6.93992 7.8558 7.47743 7.40198 7.76828 7.08859C7.92097 6.92407 8.08791 6.89992 8.15551 6.89992Z"/>
</mask>
<path d="M11.9999 0.919922C6.16231 0.919922 1.41992 5.66231 1.41992 11.4999C1.41992 13.3763 1.93452 15.1274 2.79273 16.6561L1.43699 21.4959C1.41533 21.5734 1.41435 21.6552 1.43415 21.7331C1.45395 21.811 1.49384 21.8824 1.54983 21.9402C1.60583 21.9979 1.67598 22.0399 1.75329 22.0621C1.83059 22.0842 1.91236 22.0857 1.99043 22.0664L7.03695 20.8158C8.51985 21.6075 10.2025 22.0799 11.9999 22.0799C17.8375 22.0799 22.5799 17.3375 22.5799 11.4999C22.5799 5.66231 17.8375 0.919922 11.9999 0.919922ZM11.9999 1.83992C17.3403 1.83992 21.6599 6.15954 21.6599 11.4999C21.6599 16.8403 17.3403 21.1599 11.9999 21.1599C10.2878 21.1599 8.6843 20.7136 7.29031 19.9336C7.18836 19.8766 7.06855 19.8605 6.9552 19.8886L2.53578 20.9838L3.72082 16.7558C3.73778 16.696 3.74246 16.6335 3.73458 16.5719C3.72671 16.5102 3.70644 16.4509 3.675 16.3973C2.82784 14.9608 2.33992 13.2894 2.33992 11.4999C2.33992 6.15954 6.65954 1.83992 11.9999 1.83992ZM8.15551 5.97992C7.86063 5.97992 7.4395 6.08963 7.09355 6.46238C6.88577 6.68627 6.01992 7.5299 6.01992 9.01305C6.01992 10.5593 7.09236 11.8936 7.22203 12.065H7.22293V12.0659C7.21063 12.0498 7.38752 12.3059 7.62363 12.6131C7.85975 12.9202 8.18993 13.3237 8.60473 13.7604C9.43432 14.6339 10.6007 15.6433 12.0484 16.2607C12.7151 16.5446 13.2411 16.7161 13.6396 16.8411C14.3781 17.073 15.0507 17.0378 15.5559 16.9633C15.9341 16.9076 16.3501 16.726 16.7616 16.4656C17.1732 16.2051 17.5765 15.8813 17.7544 15.3893C17.8818 15.0365 17.9466 14.7105 17.97 14.4423C17.9818 14.3082 17.9832 14.1898 17.9745 14.0802C17.9658 13.9706 17.9751 13.8867 17.873 13.7191C17.6588 13.3674 17.4163 13.3583 17.1632 13.233C17.0226 13.1634 16.6223 12.9679 16.2208 12.7766C15.8197 12.5855 15.4724 12.4162 15.2586 12.34C15.1234 12.2913 14.9584 12.2214 14.7204 12.2483C14.4823 12.2753 14.2472 12.447 14.1104 12.6499C13.9806 12.8422 13.4583 13.4588 13.2991 13.64C13.2969 13.6387 13.3108 13.6451 13.2479 13.6139C13.0509 13.5165 12.8101 13.4336 12.4536 13.2456C12.0972 13.0576 11.6514 12.7799 11.1635 12.3498V12.3489C10.4373 11.7097 9.92867 10.907 9.7682 10.6374C9.77901 10.6246 9.76692 10.6401 9.78977 10.6177L9.79066 10.6168C9.95466 10.4552 10.1 10.2623 10.2228 10.1208C10.3969 9.92022 10.4738 9.74338 10.557 9.57816C10.7229 9.24888 10.6306 8.88654 10.5346 8.6959V8.695C10.5412 8.70819 10.4826 8.57899 10.4196 8.42996C10.3563 8.2805 10.2757 8.08674 10.1896 7.88012C10.0173 7.46687 9.82505 7.00338 9.7107 6.73191V6.73102C9.57599 6.41126 9.39374 6.1809 9.15547 6.06977C8.91719 5.95863 8.70668 5.99023 8.69816 5.9898H8.69727C8.52723 5.98196 8.34064 5.97992 8.15551 5.97992ZM8.15551 6.89992C8.33286 6.89992 8.5077 6.90208 8.65414 6.90891C8.80479 6.91641 8.79542 6.91703 8.76645 6.90352C8.73701 6.88979 8.77695 6.88533 8.86258 7.08859C8.97455 7.35441 9.16778 7.81958 9.34055 8.2341C9.42693 8.44136 9.50778 8.63588 9.57234 8.78844C9.63691 8.941 9.6719 9.02618 9.7125 9.10738V9.10828L9.7134 9.10918C9.75321 9.18772 9.74969 9.13744 9.73586 9.16488C9.63879 9.35754 9.62561 9.40485 9.52742 9.51797C9.37791 9.69021 9.22541 9.88229 9.14469 9.9618C9.07406 10.0312 8.94664 10.1393 8.86707 10.3508C8.78738 10.5627 8.82458 10.8534 8.95242 11.0705C9.12264 11.3594 9.68355 12.2724 10.5552 13.0398C11.1042 13.5238 11.6156 13.8441 12.0242 14.0596C12.4327 14.2751 12.7655 14.401 12.84 14.4378C13.0168 14.5253 13.21 14.5933 13.4347 14.5663C13.6594 14.5393 13.8532 14.403 13.9765 14.2635L13.9774 14.2626C14.1415 14.0765 14.6292 13.5197 14.8632 13.1764C14.8732 13.1799 14.8699 13.1772 14.9477 13.2052V13.2061H14.9486C14.9841 13.2187 15.4289 13.4178 15.8255 13.6068C16.222 13.7957 16.6246 13.9921 16.7554 14.0569C16.9441 14.1503 17.0333 14.2111 17.0563 14.2114C17.0579 14.2519 17.0595 14.2957 17.0536 14.3623C17.0375 14.5471 16.9881 14.8028 16.8892 15.0766C16.8408 15.2106 16.5884 15.487 16.2702 15.6884C15.952 15.8898 15.5646 16.0321 15.4212 16.0532C14.9899 16.1168 14.4778 16.14 13.9154 15.9634C13.5254 15.841 13.0392 15.6825 12.4096 15.4144C11.1327 14.8699 10.0475 13.9432 9.27227 13.127C8.88465 12.7189 8.5741 12.339 8.35316 12.0516C8.13264 11.7647 8.03635 11.6154 7.95605 11.5098L7.95516 11.5089C7.81263 11.3204 6.93992 10.1065 6.93992 9.01305C6.93992 7.8558 7.47743 7.40198 7.76828 7.08859C7.92097 6.92407 8.08791 6.89992 8.15551 6.89992Z" fill="white"/>
<path d="M11.9999 0.919922C6.16231 0.919922 1.41992 5.66231 1.41992 11.4999C1.41992 13.3763 1.93452 15.1274 2.79273 16.6561L1.43699 21.4959C1.41533 21.5734 1.41435 21.6552 1.43415 21.7331C1.45395 21.811 1.49384 21.8824 1.54983 21.9402C1.60583 21.9979 1.67598 22.0399 1.75329 22.0621C1.83059 22.0842 1.91236 22.0857 1.99043 22.0664L7.03695 20.8158C8.51985 21.6075 10.2025 22.0799 11.9999 22.0799C17.8375 22.0799 22.5799 17.3375 22.5799 11.4999C22.5799 5.66231 17.8375 0.919922 11.9999 0.919922ZM11.9999 1.83992C17.3403 1.83992 21.6599 6.15954 21.6599 11.4999C21.6599 16.8403 17.3403 21.1599 11.9999 21.1599C10.2878 21.1599 8.6843 20.7136 7.29031 19.9336C7.18836 19.8766 7.06855 19.8605 6.9552 19.8886L2.53578 20.9838L3.72082 16.7558C3.73778 16.696 3.74246 16.6335 3.73458 16.5719C3.72671 16.5102 3.70644 16.4509 3.675 16.3973C2.82784 14.9608 2.33992 13.2894 2.33992 11.4999C2.33992 6.15954 6.65954 1.83992 11.9999 1.83992ZM8.15551 5.97992C7.86063 5.97992 7.4395 6.08963 7.09355 6.46238C6.88577 6.68627 6.01992 7.5299 6.01992 9.01305C6.01992 10.5593 7.09236 11.8936 7.22203 12.065H7.22293V12.0659C7.21063 12.0498 7.38752 12.3059 7.62363 12.6131C7.85975 12.9202 8.18993 13.3237 8.60473 13.7604C9.43432 14.6339 10.6007 15.6433 12.0484 16.2607C12.7151 16.5446 13.2411 16.7161 13.6396 16.8411C14.3781 17.073 15.0507 17.0378 15.5559 16.9633C15.9341 16.9076 16.3501 16.726 16.7616 16.4656C17.1732 16.2051 17.5765 15.8813 17.7544 15.3893C17.8818 15.0365 17.9466 14.7105 17.97 14.4423C17.9818 14.3082 17.9832 14.1898 17.9745 14.0802C17.9658 13.9706 17.9751 13.8867 17.873 13.7191C17.6588 13.3674 17.4163 13.3583 17.1632 13.233C17.0226 13.1634 16.6223 12.9679 16.2208 12.7766C15.8197 12.5855 15.4724 12.4162 15.2586 12.34C15.1234 12.2913 14.9584 12.2214 14.7204 12.2483C14.4823 12.2753 14.2472 12.447 14.1104 12.6499C13.9806 12.8422 13.4583 13.4588 13.2991 13.64C13.2969 13.6387 13.3108 13.6451 13.2479 13.6139C13.0509 13.5165 12.8101 13.4336 12.4536 13.2456C12.0972 13.0576 11.6514 12.7799 11.1635 12.3498V12.3489C10.4373 11.7097 9.92867 10.907 9.7682 10.6374C9.77901 10.6246 9.76692 10.6401 9.78977 10.6177L9.79066 10.6168C9.95466 10.4552 10.1 10.2623 10.2228 10.1208C10.3969 9.92022 10.4738 9.74338 10.557 9.57816C10.7229 9.24888 10.6306 8.88654 10.5346 8.6959V8.695C10.5412 8.70819 10.4826 8.57899 10.4196 8.42996C10.3563 8.2805 10.2757 8.08674 10.1896 7.88012C10.0173 7.46687 9.82505 7.00338 9.7107 6.73191V6.73102C9.57599 6.41126 9.39374 6.1809 9.15547 6.06977C8.91719 5.95863 8.70668 5.99023 8.69816 5.9898H8.69727C8.52723 5.98196 8.34064 5.97992 8.15551 5.97992ZM8.15551 6.89992C8.33286 6.89992 8.5077 6.90208 8.65414 6.90891C8.80479 6.91641 8.79542 6.91703 8.76645 6.90352C8.73701 6.88979 8.77695 6.88533 8.86258 7.08859C8.97455 7.35441 9.16778 7.81958 9.34055 8.2341C9.42693 8.44136 9.50778 8.63588 9.57234 8.78844C9.63691 8.941 9.6719 9.02618 9.7125 9.10738V9.10828L9.7134 9.10918C9.75321 9.18772 9.74969 9.13744 9.73586 9.16488C9.63879 9.35754 9.62561 9.40485 9.52742 9.51797C9.37791 9.69021 9.22541 9.88229 9.14469 9.9618C9.07406 10.0312 8.94664 10.1393 8.86707 10.3508C8.78738 10.5627 8.82458 10.8534 8.95242 11.0705C9.12264 11.3594 9.68355 12.2724 10.5552 13.0398C11.1042 13.5238 11.6156 13.8441 12.0242 14.0596C12.4327 14.2751 12.7655 14.401 12.84 14.4378C13.0168 14.5253 13.21 14.5933 13.4347 14.5663C13.6594 14.5393 13.8532 14.403 13.9765 14.2635L13.9774 14.2626C14.1415 14.0765 14.6292 13.5197 14.8632 13.1764C14.8732 13.1799 14.8699 13.1772 14.9477 13.2052V13.2061H14.9486C14.9841 13.2187 15.4289 13.4178 15.8255 13.6068C16.222 13.7957 16.6246 13.9921 16.7554 14.0569C16.9441 14.1503 17.0333 14.2111 17.0563 14.2114C17.0579 14.2519 17.0595 14.2957 17.0536 14.3623C17.0375 14.5471 16.9881 14.8028 16.8892 15.0766C16.8408 15.2106 16.5884 15.487 16.2702 15.6884C15.952 15.8898 15.5646 16.0321 15.4212 16.0532C14.9899 16.1168 14.4778 16.14 13.9154 15.9634C13.5254 15.841 13.0392 15.6825 12.4096 15.4144C11.1327 14.8699 10.0475 13.9432 9.27227 13.127C8.88465 12.7189 8.5741 12.339 8.35316 12.0516C8.13264 11.7647 8.03635 11.6154 7.95605 11.5098L7.95516 11.5089C7.81263 11.3204 6.93992 10.1065 6.93992 9.01305C6.93992 7.8558 7.47743 7.40198 7.76828 7.08859C7.92097 6.92407 8.08791 6.89992 8.15551 6.89992Z" stroke="white" stroke-width="0.8" mask="url(#path-1-outside-1_744_17034)"/>
</svg>
